<?xml version="1.0" encoding="UTF-8"?>
<svg preserveAspectRatio="xMidYMid meet" data-bbox="0.004 0 664.756 575.75" viewBox="0.004 0 664.756 575.75" xmlns="http://www.w3.org/2000/svg" data-type="color" role="img" aria-label="ArkCAN Logo">
    <g>
        <path d="M607.5 186.88c-15.15 13.35-24.62 20.06-45.53 37.16-138.72 120.4-185.11 309.8-197.68 316.45-11.89 6.3 82.86-156.33 21.97-284.29-97.81 122.46-79.75 289.04-91.31 284.37-11.57 4.66 6.5-161.93-91.32-284.38-60.9 127.97 33.85 290.6 21.96 284.3-12.57-6.65-58.95-196.05-197.68-316.45-4.65-3.8-8.72-7.09-12.43-10.05-1.75 87.79-8.51 162.2-15.44 253.12-.74 9.65 9.85 21.1 26.47 11.65 16.57-9.45 33.1 2.88 33.15 11.51l.48 68.68c.08 12.3 6.76 16.8 15.79 16.8h385.99c13.05 0 21.51-12.9 14.35-36.39-7.19-23.42-27.78-52.62-12.92-76.52 14.83-23.95 22.38-7.77 18.67-26.73-3.7-18.92 29.44-21.28 19.28-40.24-10.11-18.94 28.75-36.99 37.17-48.84 12.7-17.82 11.96-28.39 4.41-41.36-6.89-11.97 2.05-18.15 13.12-22.34 25.96-9.84 50.51-32.13 51.91-62.61.53-12.23-1.73-24.72-.41-33.84" fill="#ffffff"/>
        <path d="M353.51 221.24c2.51-1.55 4.98-3.16 7.42-4.81-3.53-4.29-7.31-8.51-11.34-12.64l-1.25-1.28c-13.05 12.64-30.6 20.73-50.18 21.55-21.9.91-42.02-7.44-56.62-21.56-.42.43-.84.87-1.25 1.28-3.93 4.02-7.61 8.13-11.06 12.3 12.24 8.2 24.91 15.55 39.04 19.65 27.14 7.9 61.54.09 85.24-14.49" fill="#ffffff"/>
        <path d="M644.48 82.22h-56.31c-9.33 0-12.05-6.72-10.16-13.74 2.14-7.86 4.67-16.57 16.35-19.09 9.03-1.92 21.72-11.26 16.57-24.67C605.96 11.59 598.2 0 580.49 0H28.17C15.74 0 10.42 3.82 11.21 17.69c2.93 50.6 4.35 95.14 4.65 136.01 45.03 35.45 98.61 74.25 127.44 67.88 6.76-1.49 13.33-4.21 19.74-7.68-5.19-4.82-10.59-9.82-15.61-14.37a76.3 76.3 0 0 1-16.94 1.71c-42.42-.43-76.47-35.19-76.03-77.61.45-42.42 35.19-76.46 77.62-76.02 42.42.45 76.46 35.2 76.02 77.61-.24 23.41-10.94 44.26-27.6 58.17 4.33 2.94 7.99 5.4 10.24 6.73 1.12.66 2.24 1.34 3.35 2.02 8.97-7.15 17.76-14.35 26.5-20.1.4-.26.85-.57 1.33-.91a77 77 0 0 1-3.72-20.61c-1.78-42.39 31.15-78.2 73.53-79.98 42.4-1.77 78.21 31.16 79.98 73.54.39 9.45-.94 18.56-3.71 27.05.48.34.93.64 1.33.9 8.74 5.75 17.53 12.95 26.5 20.1a141 141 0 0 1 3.34-2.02c2.25-1.33 5.92-3.78 10.25-6.73-16.66-13.92-27.37-34.76-27.61-58.17-.44-42.42 33.6-77.17 76.03-77.61 42.42-.44 77.17 33.6 77.61 76.02.44 42.43-33.61 77.18-76.03 77.61a77.5 77.5 0 0 1-16.94-1.71c-5.02 4.56-10.42 9.56-15.62 14.37 6.41 3.47 12.97 6.19 19.73 7.68 29.9 6.6 86.42-35.38 132.42-71.81 31.86-21.75 58.32-4.98 45.92 18.14 8.3-7.86 14.42-19.33 12.44-29.19-2.7-13.54 27.39-22.01 27.39-37.57 0-12.72-11.04-18.92-20.28-18.92" fill="#ffffff"/>
    </g>
</svg>
